<svg width="60" height="60" viewBox="0 0 60 60" fill="none" xmlns="http://www.w3.org/2000/svg">
<path d="M47.2795 30.6151L37.7065 21.345L40.9664 18.1882C41.4252 18.4502 41.9461 18.5934 42.4922 18.5934C43.2954 18.5934 44.0516 18.2907 44.6195 17.7407C45.7924 16.605 45.7924 14.7565 44.6195 13.6207C44.0516 13.0707 43.2954 12.768 42.4922 12.768C41.689 12.768 40.9328 13.0707 40.3649 13.6207C39.7969 14.1707 39.4843 14.9029 39.4843 15.6807C39.4843 16.2095 39.6322 16.7156 39.9028 17.1582L36.6429 20.3149L27.0715 11.0465C26.9304 10.9098 26.7388 10.8333 26.5405 10.8333C26.3423 10.8333 26.149 10.9098 26.0079 11.0465L25.4769 11.5623C24.9056 12.1155 24.388 12.7062 23.9209 13.3294C23.9158 13.3376 23.9091 13.3441 23.9057 13.3522C23.2067 14.2895 22.6253 15.3016 22.1733 16.382C21.4423 18.128 21.0727 19.9716 21.0727 21.8624C21.0727 23.7532 21.444 25.5984 22.1733 27.3428C22.7698 28.7682 23.5898 30.0748 24.6132 31.2464L16.734 47.7738C16.6953 47.8568 16.6751 47.943 16.6684 48.0276H16.6667V48.0374C16.6667 48.0536 16.6667 48.0715 16.6667 48.0878V49.1666H36.2177V48.0276H36.2144C36.2076 47.9414 36.1892 47.8551 36.1488 47.7738L30.1768 35.2444C30.2693 35.2818 30.3583 35.3241 30.4507 35.3599C32.2538 36.0678 34.1576 36.4257 36.1102 36.4257C38.0628 36.4257 39.9683 36.0661 41.7696 35.3599C42.8854 34.9222 43.9306 34.3592 44.8985 33.6823C44.9069 33.6774 44.9136 33.6725 44.922 33.6677C45.5656 33.2153 46.1755 32.7141 46.7469 32.1609L47.2795 31.6451C47.5736 31.3603 47.5736 30.8998 47.2795 30.6151ZM41.4302 14.6507C41.7142 14.3757 42.0923 14.2244 42.4939 14.2244C42.8955 14.2244 43.2736 14.3757 43.5575 14.6507C44.144 15.2186 44.144 16.1428 43.5575 16.7107C43.2736 16.9857 42.8955 17.137 42.4939 17.137C42.0923 17.137 41.7142 16.9857 41.4302 16.7107C41.1462 16.4357 40.99 16.0696 40.99 15.6807C40.99 15.2918 41.1462 14.9257 41.4302 14.6507ZM34.6147 48.0276H18.2698L25.7239 32.3887C26.4246 33.0379 27.1791 33.6156 27.984 34.1168L34.6147 48.0276ZM36.1119 34.9694C32.4957 34.9694 29.0964 33.6058 26.5389 31.1292C23.9814 28.6527 22.5732 25.3609 22.5732 21.8591C22.5732 19.35 23.2991 16.9515 24.6501 14.8801L43.3172 32.9566C41.1798 34.2648 38.7013 34.9678 36.1102 34.9678L36.1119 34.9694ZM44.5607 32.1023L25.5357 13.6793C25.8482 13.3018 26.1809 12.9373 26.5389 12.5907L45.6832 31.1292C45.3253 31.4758 44.9489 31.798 44.559 32.1007L44.5607 32.1023Z" fill="white"/>
</svg>
