<svg width="60" height="60" viewBox="0 0 60 60" fill="none" xmlns="http://www.w3.org/2000/svg">
<path d="M36.3156 20.5886C36.3156 16.9914 33.3899 14.0657 29.7929 14.0657C26.1959 14.0657 23.2703 16.9914 23.2703 20.5886C23.2703 24.1858 26.1959 27.1116 29.7929 27.1116C33.3899 27.1116 36.3156 24.1858 36.3156 20.5886ZM24.8495 20.5886C24.8495 17.8632 27.0676 15.645 29.7929 15.645C32.5182 15.645 34.7363 17.8632 34.7363 20.5886C34.7363 23.314 32.5182 25.5323 29.7929 25.5323C27.0676 25.5323 24.8495 23.314 24.8495 20.5886Z" fill="white"/>
<path d="M36.8444 33.2411C39.595 28.8551 42.1849 23.888 42.1849 20.7258C42.1849 13.8924 36.6261 8.33331 29.793 8.33331C22.9599 8.33331 17.401 13.8924 17.401 20.7258C17.401 23.888 19.9891 28.8551 22.7415 33.2411C17.4967 34.7861 14.1667 37.9429 14.1667 41.4678C14.1667 46.6281 21.0305 50.6711 29.793 50.6711C38.5554 50.6711 45.4192 46.6281 45.4192 41.4678C45.4192 37.9429 42.0893 34.7861 36.8444 33.2411ZM29.793 9.91441C35.7543 9.91441 40.6039 14.7642 40.6039 20.7258C40.6039 25.9565 32.1771 37.479 29.793 40.6358C27.407 37.479 18.982 25.9601 18.982 20.7258C18.982 14.7642 23.8316 9.91441 29.793 9.91441ZM29.793 49.0918C22.1802 49.0918 15.746 45.6011 15.746 41.4678C15.746 38.5746 18.825 35.9304 23.6313 34.6363C26.3349 38.7876 28.9447 42.1339 29.1703 42.4226C29.3201 42.614 29.5493 42.7259 29.7912 42.7259C30.033 42.7259 30.264 42.614 30.412 42.4226C30.6376 42.1357 33.2474 38.7894 35.951 34.6363C40.7573 35.9304 43.8364 38.5746 43.8364 41.4678C43.8364 45.6011 37.4039 49.0918 29.7894 49.0918H29.793Z" fill="white"/>
</svg>
