<svg width="60" height="60" viewBox="0 0 60 60" fill="none" xmlns="http://www.w3.org/2000/svg">
<path d="M49.7181 23.8113L30.7558 10.1295C30.5165 9.95683 30.1924 9.95683 29.9531 10.1295L10.2804 24.3248C9.97594 24.5441 9.9093 24.9676 10.1304 25.2694C10.2637 25.4511 10.4712 25.5472 10.6817 25.5472C10.8211 25.5472 10.9604 25.5052 11.0816 25.4181L13.358 23.7752V45.1351C13.358 45.509 13.6624 45.8108 14.0395 45.8108H24.5112C24.5657 45.8243 24.6203 45.8333 24.6793 45.8333H35.8583C35.9159 45.8333 35.9719 45.8243 36.0265 45.8108H45.959C46.3361 45.8108 46.6405 45.509 46.6405 45.1351V23.2617L48.9169 24.9045C49.2213 25.1237 49.6469 25.0577 49.8696 24.7558C50.0907 24.454 50.0241 24.032 49.7196 23.8113H49.7181ZM35.1768 44.4593H25.3609V29.393H35.1768V44.4593ZM45.2774 22.676V44.4593H36.5399V28.7172C36.5399 28.3433 36.2355 28.0415 35.8583 28.0415H24.6793C24.3022 28.0415 23.9978 28.3433 23.9978 28.7172V44.4593H14.7226V22.7916L30.3559 11.5126L45.3698 22.3456C45.3138 22.4433 45.2789 22.5559 45.2789 22.6775L45.2774 22.676Z" fill="white"/>
</svg>
