<svg width="60" height="60" viewBox="0 0 60 60" fill="none" xmlns="http://www.w3.org/2000/svg">
<path d="M18.3808 24.0705V41.65H13.35V24.0705C13.35 22.6813 14.4762 21.5551 15.8654 21.5551C17.2546 21.5551 18.3808 22.6813 18.3808 24.0705Z" stroke="white" stroke-width="1.7"/>
<path d="M28.1029 17.5321V41.65H23.0722V17.5321C23.0722 16.1429 24.1983 15.0167 25.5876 15.0167C26.9768 15.0167 28.1029 16.1429 28.1029 17.5321Z" stroke="white" stroke-width="1.7"/>
<path d="M37.8251 28.4295V41.65H32.7943V28.4295C32.7943 27.0403 33.9205 25.9141 35.3097 25.9141C36.6989 25.9141 37.8251 27.0403 37.8251 28.4295Z" stroke="white" stroke-width="1.7"/>
<path d="M47.5473 22.6175V41.65H42.5165V22.6175C42.5165 21.2283 43.6427 20.1021 45.0319 20.1021C46.4211 20.1021 47.5473 21.2283 47.5473 22.6175Z" stroke="white" stroke-width="1.7"/>
<path d="M8.33325 41.6667H50.9615" stroke="white" stroke-width="1.8" stroke-linecap="round"/>
</svg>
