<svg width="135" height="68" viewBox="0 0 135 68" fill="none" xmlns="http://www.w3.org/2000/svg">
<g clip-path="url(#clip0_1_18)">
<path d="M48.1881 27.8357L55.9733 29.3684C56.3897 29.4504 56.661 29.8503 56.5783 30.2602C56.4957 30.6701 56.0901 30.9367 55.6737 30.8547L47.8885 29.3219C47.4721 29.2399 47.2008 28.8401 47.2835 28.4302C47.3661 28.0203 47.7717 27.7537 48.1881 27.8357Z" fill="#066471"/>
<path d="M11.2363 14.1514L48.4051 21.4692C48.9731 21.581 49.3419 22.1246 49.2291 22.6838L46.8518 34.4748C46.739 35.034 46.1875 35.3964 45.6195 35.2846L8.45072 27.9667C7.88273 27.8549 7.51392 27.3113 7.62667 26.7521L10.0041 14.9611C10.1168 14.402 10.6683 14.0395 11.2363 14.1514Z" fill="#066471"/>
<path d="M10.0086 21.8642L15.1268 22.8718L13.8837 29.0375L15.3933 29.3347L16.6365 23.1691L21.996 24.2243L20.7529 30.3899L22.2625 30.6871L23.5057 24.5215L28.8652 25.5767L27.6221 31.7423L29.1317 32.0395L30.3749 25.8739L35.7344 26.9291L34.4913 33.0947L36.0009 33.3919L37.2441 27.2263L42.6036 28.2815L41.3605 34.4471L42.8701 34.7443L44.1133 28.5787L47.8884 29.322L48.1881 27.8358L44.4129 27.0925L45.6557 20.929L44.146 20.6318L42.9041 26.7965L37.5446 25.7413L38.7865 19.5766L37.2768 19.2793L36.0349 25.4441L30.6754 24.3889L31.9181 18.2254L30.4085 17.9282L29.1666 24.093L23.8071 23.0378L25.0498 16.8743L23.5401 16.577L22.2983 22.7418L16.9387 21.6866L18.1815 15.5231L16.6718 15.2259L15.4299 21.3907L10.3117 20.383C9.89528 20.301 9.48966 20.5675 9.40701 20.9775C9.32436 21.3874 9.59562 21.7872 10.012 21.8692L10.0086 21.8642Z" fill="#90A6B4"/>
<path d="M8.45074 27.9667L10.1099 28.2934L12.8954 14.478L11.2363 14.1513C10.6683 14.0395 10.1168 14.4019 10.0041 14.9611L7.62669 26.7521C7.51395 27.3113 7.88276 27.8549 8.45074 27.9667Z" fill="#4B9B9C"/>
<path d="M77.7041 33.6469L85.4893 35.1797C85.9057 35.2616 86.177 35.6615 86.0943 36.0714C86.0117 36.4813 85.6061 36.7479 85.1897 36.6659L77.4044 35.1331C76.9881 35.0511 76.7168 34.6513 76.7995 34.2414C76.8821 33.8315 77.2877 33.5649 77.7041 33.6469Z" fill="#066471"/>
<path d="M122.142 50.3515L84.9736 43.0337C84.4056 42.9218 84.0368 42.3782 84.1496 41.8191L86.5269 30.0281C86.6397 29.4689 87.1912 29.1065 87.7592 29.2183L124.928 36.534C125.496 36.6459 125.865 37.1895 125.752 37.7486L123.375 49.5417C123.262 50.1009 122.71 50.4633 122.142 50.3515Z" fill="#066471"/>
<path d="M85.1897 36.6659L88.9649 37.4091L87.7217 43.5748L89.2313 43.872L90.4745 37.7064L95.8341 38.7615L94.5909 44.9272L96.1005 45.2244L97.3437 39.0588L102.703 40.114L101.46 46.2796L102.97 46.5768L104.213 40.4112L109.572 41.4664L108.329 47.632L109.839 47.9292L111.082 41.7636L116.442 42.8188L115.198 48.9844L116.708 49.2816L117.951 43.116L123.07 44.1237C123.486 44.2057 123.892 43.9391 123.974 43.5292C124.057 43.1193 123.786 42.7195 123.369 42.6375L118.251 41.6298L119.494 35.4663L117.984 35.169L116.742 41.3338L111.383 40.2786L112.625 34.1151L111.116 33.8179L109.874 39.9827L104.514 38.9275L105.757 32.764L104.247 32.4667L103.005 38.6315L97.6459 37.5763L98.8887 31.4128L97.379 31.1156L96.1371 37.2804L90.7776 36.2252L92.0216 30.0608L90.512 29.7636L89.2701 35.9284L85.4949 35.1851L85.1952 36.6713L85.1897 36.6659Z" fill="#90A6B4"/>
<path d="M124.928 36.5341L123.269 36.2074L120.482 50.0236L122.142 50.3503C122.71 50.4621 123.261 50.0997 123.374 49.5405L125.752 37.7487C125.865 37.1895 125.496 36.6459 124.928 36.5341Z" fill="#4B9B9C"/>
<path d="M60.1866 10.3057L81.2062 14.4441C83.0703 14.8111 84.2812 16.5958 83.9112 18.431L78.5011 45.2629C78.1311 47.0981 76.3205 48.2879 74.4564 47.9209L53.4367 43.7825C51.5726 43.4155 50.3618 41.6308 50.7318 39.7957L56.1418 12.9638C56.5119 11.1286 58.3225 9.93873 60.1866 10.3057Z" fill="#173840"/>
<path d="M64.7011 45.9994L71.4508 12.5231L69.9409 12.2258L63.1912 45.7021L64.7011 45.9994Z" fill="#90A6B4"/>
<path d="M51.6544 35.219L79.4254 40.6866L81.7248 29.2826L53.9537 23.815L51.6544 35.219Z" fill="#4B9B9C"/>
<path d="M78.2433 13.86L63.1506 10.8885L63.4081 9.61166C63.6173 8.57412 64.6433 7.89985 65.6972 8.10734L76.9699 10.3267C78.0238 10.5342 78.7099 11.5456 78.5007 12.5831L78.2433 13.86Z" fill="#066471"/>
<path d="M58.4677 39.6576L71.4096 42.2057C71.826 42.2876 72.0973 42.6875 72.0146 43.0974C71.932 43.5073 71.5263 43.7739 71.11 43.6919L58.168 41.1439C57.7517 41.0619 57.4804 40.6621 57.563 40.2521C57.6457 39.8422 58.0513 39.5757 58.4677 39.6576Z" fill="#90A6B4"/>
<path d="M56.4017 44.3655L71.4944 47.3369L71.237 48.6138C71.0278 49.6513 70.0017 50.3256 68.9478 50.1181L57.6751 47.8987C56.6212 47.6912 55.9351 46.6799 56.1443 45.6423L56.4017 44.3655Z" fill="#066471"/>
<path d="M43.1601 52.7093C42.6637 55.186 50.6065 58.846 60.9009 60.8843C71.1953 62.9225 79.943 62.5671 80.4395 60.0904C80.9359 57.6138 72.9931 53.9537 62.6987 51.9154C52.4043 49.8772 43.6566 50.2326 43.1601 52.7093Z" fill="#173840"/>
<path d="M62.6993 51.8924C72.9891 53.9405 80.927 57.6187 80.4307 60.1077C81.2653 55.9222 73.7595 50.0767 63.471 48.0278C53.1825 45.9788 44.0064 48.505 43.1718 52.6905C43.6681 50.2015 52.4108 49.8435 62.7006 51.8916L62.6993 51.8924Z" fill="#66858A"/>
<path d="M62.2086 54.3667C62.625 54.4487 62.8963 54.8485 62.8136 55.2584L60.9317 64.592C60.8491 65.0019 60.4435 65.2685 60.0271 65.1865C59.6107 65.1045 59.3394 64.7047 59.4221 64.2948L61.304 54.9612C61.3866 54.5513 61.7923 54.2847 62.2086 54.3667Z" fill="#90A6B4"/>
<path d="M58.8082 62.9019C57.739 63.6046 57.4519 65.0285 58.167 66.0825C58.882 67.1364 60.3284 67.4212 61.3976 66.7185C62.4669 66.0159 62.754 64.5919 62.0389 63.538C61.3239 62.484 59.8775 62.1993 58.8082 62.9019Z" fill="#DC544F"/>
</g>
<defs>
<clipPath id="clip0_1_18">
<rect width="135" height="68" fill="white"/>
</clipPath>
</defs>
</svg>
