<svg width="129" height="68" viewBox="0 0 129 68" fill="none" xmlns="http://www.w3.org/2000/svg">
<g clip-path="url(#clip0_1_1783)">
<path d="M44.7379 44.2256C44.7379 44.2256 46.9055 42.371 48.7686 37.7915C49.7621 35.3093 54.8439 22.7546 54.8439 22.7546L56.8898 20.9004L62.2279 21.9654L65.1846 27.4948L67.002 27.721L71.2006 23.4828L76.5396 24.2947L78.1394 26.4712L78.513 46.0682L80.2727 49.9326" stroke="#5B9DAF" stroke-width="1.01" stroke-miterlimit="10"/>
<path d="M50.5789 48.5342L62.5502 49.9945L74.9294 52.6158L73.5562 55.6237L49.987 51.6597C49.987 51.6597 48.612 48.2938 50.5789 48.5342Z" stroke="#5B9DAF" stroke-width="1.01" stroke-miterlimit="10"/>
<path d="M78.7759 49.6677C78.7759 49.6677 78.7821 43.2446 73.7427 44.1333C71.0165 44.5084 67.4426 47.7139 67.4426 47.7139C67.4426 47.7139 65.3166 50.2441 66.8785 51.847C67.199 51.8082 68.9078 52.5739 68.9078 52.5739C68.9078 52.5739 67.2804 49.4504 71.1187 47.2306C72.7232 46.1553 77.3784 43.3394 77.4495 50.8391C77.3974 50.9724 78.7857 49.6693 78.7857 49.6693L78.7759 49.6677Z" fill="#063E4D" stroke="#5B9DAF" stroke-width="1.01" stroke-miterlimit="10"/>
<path d="M46.1546 44.234C46.1546 44.234 48.6053 38.2915 52.9179 41.0432C55.2846 42.4332 57.3729 46.7669 57.3729 46.7669C57.3729 46.7669 58.3675 49.9186 56.3071 50.8078C56.0288 50.6509 54.1564 50.6995 54.1564 50.6995C54.1564 50.6995 56.857 48.4355 54.1597 44.9142C53.0943 43.3114 49.86 38.9222 46.9388 45.8213C46.936 45.9627 46.1546 44.234 46.1546 44.234Z" fill="#063E4D" stroke="#5B9DAF" stroke-width="1.01" stroke-miterlimit="10"/>
<path d="M38.2219 6.10513L14.2895 2.19324C10.8666 1.63374 7.63823 3.955 7.07874 7.37793L3.26363 30.7182C2.70413 34.1411 5.02539 37.3695 8.44832 37.929L32.3807 41.8409C35.8036 42.4004 39.032 40.0791 39.5915 36.6562L43.4066 13.3159C43.9661 9.89302 41.6449 6.66463 38.2219 6.10513Z" fill="#063E4D" stroke="#5B9DAF" stroke-width="1.01" stroke-miterlimit="10"/>
<path d="M16.5498 2.5625L10.7086 38.2983" stroke="#5B9DAF" stroke-width="1.01" stroke-miterlimit="10"/>
<path d="M35.8828 5.72266L30.0416 41.4584" stroke="#5B9DAF" stroke-width="1.01" stroke-miterlimit="10"/>
<path d="M26.2607 4.1499L20.4195 39.8857" stroke="#5B9DAF" stroke-width="1.01" stroke-miterlimit="10"/>
<path d="M42.8065 15.3154L6.74512 9.4209" stroke="#5B9DAF" stroke-width="1.01" stroke-miterlimit="10"/>
<path d="M39.6464 34.6489L3.58496 28.7544" stroke="#5B9DAF" stroke-width="1.01" stroke-miterlimit="10"/>
<path d="M41.2187 25.0263L5.15723 19.1318" stroke="#5B9DAF" stroke-width="1.01" stroke-miterlimit="10"/>
<path d="M122.099 19.8151L98.1665 15.9032C94.7436 15.3437 91.5152 17.665 90.9557 21.0879L87.1406 44.4281C86.5811 47.8511 88.9023 51.0795 92.3253 51.6389L116.258 55.5508C119.681 56.1103 122.909 53.7891 123.468 50.3662L127.284 27.0259C127.843 23.603 125.522 20.3746 122.099 19.8151Z" fill="#063E4D" stroke="#5B9DAF" stroke-width="1.01" stroke-miterlimit="10"/>
<path d="M100.427 16.2725L94.5855 52.0082" stroke="#5B9DAF" stroke-width="1.01" stroke-miterlimit="10"/>
<path d="M119.76 19.4326L113.919 55.1684" stroke="#5B9DAF" stroke-width="1.01" stroke-miterlimit="10"/>
<path d="M110.138 17.8599L104.296 53.5956" stroke="#5B9DAF" stroke-width="1.01" stroke-miterlimit="10"/>
<path d="M126.684 29.0253L90.6221 23.1309" stroke="#5B9DAF" stroke-width="1.01" stroke-miterlimit="10"/>
<path d="M123.523 48.3588L87.4619 42.4644" stroke="#5B9DAF" stroke-width="1.01" stroke-miterlimit="10"/>
<path d="M125.096 38.7363L89.0342 32.8418" stroke="#5B9DAF" stroke-width="1.01" stroke-miterlimit="10"/>
<path d="M52.3341 28.9306L41.1525 27.1029L41.6768 23.8955L53.4801 25.8248L52.3341 28.9306Z" fill="#063E4D" stroke="#5B9DAF" stroke-width="1.01" stroke-miterlimit="10"/>
<path d="M78.3691 33.1863L88.0704 34.772L88.5946 31.5646L78.3506 29.8901L78.3691 33.1863Z" fill="#063E4D" stroke="#5B9DAF" stroke-width="1.01" stroke-miterlimit="10"/>
<path d="M48.3909 53.2699C49.9925 51.312 48.664 47.5761 45.4236 44.9256C42.1833 42.275 38.2582 41.7134 36.6567 43.6713C35.0551 45.6291 36.3836 49.365 39.6239 52.0156C42.8643 54.6662 46.7894 55.2278 48.3909 53.2699Z" fill="#063E4D" stroke="#5B9DAF" stroke-width="1.01" stroke-miterlimit="10"/>
<path d="M81.9718 58.9263C85.8875 57.4454 88.3363 54.327 87.4415 51.9611C86.5467 49.5952 82.6471 48.8777 78.7315 50.3586C74.8159 51.8395 72.367 54.958 73.2618 57.3239C74.1566 59.6898 78.0562 60.4072 81.9718 58.9263Z" fill="#063E4D" stroke="#5B9DAF" stroke-width="1.01" stroke-miterlimit="10"/>
<path d="M67.206 38.373L61.5215 37.4438C60.3175 37.247 59.51 36.1119 59.7052 34.9178L60.6344 29.2332C60.8312 28.0292 61.9663 27.2217 63.1604 27.4169L68.845 28.3461C70.049 28.5429 70.8565 29.678 70.6613 30.8722L69.7321 36.5567C69.5353 37.7607 68.4002 38.5682 67.206 38.373Z" fill="#063E4D" stroke="#5B9DAF" stroke-width="1.01" stroke-miterlimit="10"/>
<path d="M70.1978 33.7049L60.1709 32.0659" stroke="#5B9DAF" stroke-width="1.01" stroke-miterlimit="10"/>
<path d="M64.3633 37.9089L66.0039 27.8721" stroke="#5B9DAF" stroke-width="1.01" stroke-miterlimit="10"/>
<path d="M61.8286 51.1836C62.9459 51.3663 63.9998 50.6085 64.1824 49.4912C64.365 48.3738 63.6073 47.32 62.4899 47.1373C61.3726 46.9547 60.3187 47.7124 60.1361 48.8298C59.9535 49.9471 60.7112 51.001 61.8286 51.1836Z" fill="#063E4D" stroke="#5B9DAF" stroke-width="1.01" stroke-miterlimit="10"/>
<path d="M60.1507 51.7891C60.6985 51.3081 60.7541 50.4757 60.2749 49.93C59.7957 49.3843 58.9632 49.3318 58.4154 49.8129L57.2131 50.8686C56.6653 51.3496 56.6097 52.182 57.0889 52.7277C57.5681 53.2734 58.4006 53.3258 58.9484 52.8448L60.1507 51.7891Z" fill="#063E4D" stroke="#5B9DAF" stroke-width="1.01" stroke-miterlimit="10"/>
<path d="M56.269 55.2079L56.2772 55.202C57.0081 54.6765 57.1746 53.658 56.649 52.9271L55.7325 51.6524C55.207 50.9215 54.1884 50.755 53.4575 51.2805L53.4494 51.2863C52.7185 51.8119 52.552 52.8304 53.0775 53.5613L53.9941 54.836C54.5196 55.5669 55.5381 55.7334 56.269 55.2079Z" fill="#063E4D" stroke="#5B9DAF" stroke-width="1.01" stroke-miterlimit="10"/>
<path d="M69.5287 53.9101L69.5228 53.902C68.9973 53.1711 67.9788 53.0046 67.2479 53.5302L65.9732 54.4467C65.2423 54.9722 65.0758 55.9908 65.6013 56.7217L65.6071 56.7298C66.1327 57.4607 67.1512 57.6272 67.8821 57.1017L69.1568 56.1851C69.8877 55.6596 70.0542 54.6411 69.5287 53.9101Z" fill="#063E4D" stroke="#5B9DAF" stroke-width="1.01" stroke-miterlimit="10"/>
<path d="M65.8199 50.9523C65.3388 50.4045 64.5065 50.3489 63.9608 50.8281C63.4151 51.3073 63.3626 52.1399 63.8436 52.6877L64.8994 53.8899C65.3804 54.4377 66.2127 54.4933 66.7584 54.0141C67.3042 53.5349 67.3566 52.7024 66.8756 52.1546L65.8199 50.9523Z" fill="#063E4D" stroke="#5B9DAF" stroke-width="1.01" stroke-miterlimit="10"/>
<path d="M55.5713 22.083L63.1899 23.764" stroke="#5B9DAF" stroke-width="1.01" stroke-miterlimit="10"/>
<path d="M69.614 25.0064L77.784 25.8555" stroke="#5B9DAF" stroke-width="1.01" stroke-miterlimit="10"/>
<path d="M63.2598 23.3398L70.0595 24.4513" stroke="#5B9DAF" stroke-width="1.01" stroke-miterlimit="10"/>
<path d="M64.0527 25.2427L68.701 26.0025" stroke="#5B9DAF" stroke-width="1.01" stroke-miterlimit="10"/>
<path d="M59.7344 23.1484L60.2712 25.0094L61.9231 25.4416L62.7971 27.3475" stroke="#5B9DAF" stroke-width="1.01" stroke-miterlimit="10"/>
<path d="M72.966 25.4533L71.8646 27.0465L70.161 26.9302L68.724 28.4685" stroke="#5B9DAF" stroke-width="1.01" stroke-miterlimit="10"/>
</g>
<defs>
<clipPath id="clip0_1_1783">
<rect width="122.81" height="47.6" fill="white" transform="translate(7.67871 0.605957) rotate(9.28325)"/>
</clipPath>
</defs>
</svg>
