<svg width="60" height="60" viewBox="0 0 60 60" fill="none" xmlns="http://www.w3.org/2000/svg">
<path d="M43.8081 20.6728C43.7814 20.6248 43.7511 20.5838 43.7172 20.5446C40.7073 16.1918 35.6813 13.3333 29.9999 13.3333C29.9233 13.3333 29.8485 13.3333 29.7719 13.3369C25.3693 13.3956 21.2409 15.1535 18.1437 18.2863C15.0412 21.4262 13.3333 25.5849 13.3333 30C13.3333 34.4151 15.0412 38.5737 18.1437 41.7137C21.2409 44.8482 25.3693 46.6043 29.7719 46.6631C29.8485 46.6666 29.9233 46.6666 29.9999 46.6666C35.4266 46.6666 40.255 44.0592 43.3005 40.0324C43.3503 39.9825 43.3949 39.9255 43.4287 39.8596C45.4626 37.0973 46.6666 33.6867 46.6666 30C46.6666 26.5537 45.614 23.3461 43.8152 20.6853C43.8134 20.6817 43.8116 20.6764 43.8098 20.6728H43.8081ZM42.1517 20.7708C40.2265 21.745 38.1035 22.4699 35.8238 22.9329C35.5424 21.3336 35.1648 19.8536 34.6964 18.5534C34.1532 17.0449 33.5067 15.8463 32.7908 14.9914C36.5879 15.6967 39.897 17.8108 42.15 20.7708H42.1517ZM29.9999 45.1528C28.381 45.1528 26.6356 42.2462 25.6917 37.5568C27.0951 37.3484 28.5413 37.2433 29.9981 37.2433C31.455 37.2433 32.9012 37.3484 34.3064 37.5568C33.3625 42.2462 31.6188 45.1528 29.9981 45.1528H29.9999ZM29.9999 14.8472C31.7026 14.8472 33.5441 18.0583 34.4453 23.1769C32.9938 23.3978 31.5013 23.5118 29.9981 23.5118C28.495 23.5118 27.0043 23.3996 25.5527 23.1769C26.4557 18.0583 28.2973 14.8472 29.9981 14.8472H29.9999ZM35.0099 30C35.0099 32.2494 34.8425 34.326 34.554 36.1765C33.0704 35.9539 31.5423 35.8417 29.9999 35.8417C28.4576 35.8417 26.9295 35.9539 25.4477 36.1765C25.1591 34.326 24.9917 32.2494 24.9917 30C24.9917 28.0444 25.1182 26.2207 25.3408 24.5626C26.8636 24.7941 28.4273 24.9134 30.0017 24.9134C31.5761 24.9134 33.1398 24.7959 34.6626 24.5626C34.8852 26.2207 35.0117 28.0462 35.0117 30.0018L35.0099 30ZM19.1393 19.2712C21.3602 17.0236 24.1618 15.5489 27.2109 14.9896C26.4931 15.8445 25.8484 17.0432 25.3034 18.5534C24.835 19.8536 24.4574 21.3318 24.176 22.9329C21.8928 22.4699 19.768 21.7432 17.841 20.7672C18.2381 20.2454 18.6709 19.7449 19.1393 19.2712ZM17.036 21.9285C19.1376 23.0149 21.4618 23.8163 23.9605 24.3168C23.7165 26.112 23.5883 28.0284 23.5883 29.9982C23.5883 32.2387 23.7539 34.4115 24.0674 36.4134C21.6826 36.8818 19.4474 37.6263 17.4082 38.6361C15.6699 36.1124 14.7331 33.1256 14.7331 29.9982C14.7331 27.1023 15.5364 24.3257 17.036 21.9267V21.9285ZM18.2738 39.7741C20.1296 38.8836 22.1546 38.2211 24.3132 37.7937C24.5767 39.1152 24.908 40.3458 25.3034 41.4447C25.8466 42.955 26.4931 44.1536 27.2109 45.0085C24.1636 44.4493 21.362 42.9746 19.1393 40.727C18.8348 40.4189 18.548 40.1001 18.2738 39.7724V39.7741ZM32.7908 45.0085C33.5067 44.1536 34.1532 42.955 34.6964 41.4465C35.0918 40.3459 35.4231 39.117 35.6867 37.7954C37.8417 38.2211 39.8649 38.8836 41.7189 39.7706C39.4838 42.4474 36.3528 44.3478 32.7908 45.0085ZM42.5827 38.6325C40.5435 37.6263 38.3119 36.8818 35.9307 36.4152C36.2441 34.4133 36.4098 32.2405 36.4098 30C36.4098 28.0302 36.2815 26.1138 36.0375 24.3186C38.5309 23.8181 40.8516 23.0184 42.9532 21.9338C44.4172 24.2758 45.2649 27.0417 45.2649 30C45.2649 33.2022 44.2729 36.1765 42.5827 38.6325Z" fill="white"/>
</svg>
