<svg width="60" height="60" viewBox="0 0 60 60" fill="none" xmlns="http://www.w3.org/2000/svg">
<path d="M30.4167 39.963C24.6935 39.963 20.0371 35.3066 20.0371 29.5834C20.0371 23.8602 24.6935 19.2037 30.4167 19.2037C36.1399 19.2037 40.7964 23.8602 40.7964 29.5834C40.7964 35.3066 36.1399 39.963 30.4167 39.963ZM30.4167 19.5637C24.8912 19.5637 20.3971 24.0578 20.3971 29.5834C20.3971 35.1089 24.8912 39.603 30.4167 39.603C35.9423 39.603 40.4364 35.1089 40.4364 29.5834C40.4364 24.0578 35.9423 19.5637 30.4167 19.5637Z" fill="black" stroke="white"/>
<mask id="path-2-inside-1_1_1111" fill="white">
<path d="M32.2416 49.1667H28.6029C27.583 49.1667 26.7542 48.3379 26.7542 47.318V44.7295C25.1856 44.351 23.6945 43.7323 22.3095 42.8865L20.474 44.7219C19.7531 45.4428 18.5799 45.4428 17.859 44.7219L15.2856 42.1485C14.5647 41.4276 14.5647 40.2544 15.2856 39.5335L17.1191 37.6999C16.2714 36.3148 15.6527 34.8238 15.2724 33.257H12.6819C11.662 33.257 10.8333 32.4283 10.8333 31.4084V27.7697C10.8333 26.7498 11.662 25.921 12.6819 25.921H15.2705C15.6489 24.3523 16.2677 22.8613 17.1135 21.4762L15.278 19.6408C14.928 19.2907 14.7369 18.8271 14.7369 18.3333C14.7369 17.8394 14.9299 17.3758 15.278 17.0257L17.8514 14.4523C18.2015 14.1023 18.6651 13.9112 19.1589 13.9112C19.6528 13.9112 20.1164 14.1042 20.4664 14.4523L22.3 16.2859C23.6851 15.4382 25.1761 14.8194 26.7429 14.4391V11.8487C26.7429 10.8288 27.5717 10 28.5916 10H32.2303C33.2502 10 34.0789 10.8288 34.0789 11.8487V14.4372C35.6476 14.8157 37.1386 15.4344 38.5237 16.2802L40.3592 14.4448C41.0801 13.7239 42.2532 13.7239 42.9742 14.4448L45.5476 17.0182C45.8976 17.3663 46.0887 17.8318 46.0887 18.3257C46.0887 18.8195 45.8957 19.2831 45.5476 19.6332L43.714 21.4667C44.5617 22.8518 45.1805 24.341 45.5608 25.9096H48.1512C49.1711 25.9096 49.9999 26.7384 49.9999 27.7583V31.397C49.9999 32.4169 49.1711 33.2457 48.1512 33.2457H45.5627C45.1843 34.8143 44.5655 36.3054 43.7197 37.6905L45.5551 39.5259C45.9052 39.876 46.0963 40.3396 46.0963 40.8334C46.0963 41.3273 45.9033 41.7909 45.5551 42.1409L42.9817 44.7143C42.2608 45.4352 41.0877 45.4352 40.3667 44.7143L38.5332 42.8808C37.1481 43.7285 35.657 44.3472 34.0903 44.7276V47.318C34.0903 48.3379 33.2615 49.1667 32.2416 49.1667ZM22.2148 41.3784C22.3416 41.3784 22.4684 41.4143 22.58 41.4881C24.1033 42.4929 25.7741 43.1854 27.5471 43.5487C27.8555 43.6112 28.0769 43.8836 28.0769 44.1977V47.318C28.0769 47.6075 28.3115 47.8421 28.601 47.8421H32.2397C32.5292 47.8421 32.7639 47.6075 32.7639 47.318V44.1959C32.7639 43.8817 32.9852 43.6093 33.2937 43.5468C35.0667 43.1835 36.7375 42.4891 38.2607 41.4843C38.5237 41.3102 38.8719 41.3462 39.0933 41.5695L41.3015 43.7777C41.5058 43.982 41.8389 43.982 42.0432 43.7777L44.6166 41.2043C44.715 41.1059 44.7699 40.9734 44.7699 40.8334C44.7699 40.6934 44.715 40.5609 44.6166 40.4625L42.4065 38.2525C42.1832 38.0292 42.1492 37.681 42.3214 37.4199C43.3261 35.8967 44.0206 34.224 44.382 32.4529C44.4444 32.1444 44.7169 31.923 45.031 31.923H48.1512C48.4407 31.923 48.6754 31.6884 48.6754 31.3989V27.7602C48.6754 27.4707 48.4407 27.2361 48.1512 27.2361H45.0291C44.715 27.2361 44.4444 27.0147 44.3801 26.7062C44.0168 24.9332 43.3223 23.2624 42.3176 21.7392C42.1435 21.4762 42.1795 21.128 42.4027 20.9066L44.6109 18.6984C44.7093 18.6001 44.7642 18.4676 44.7642 18.3276C44.7642 18.1876 44.7093 18.0551 44.6109 17.9567L42.0375 15.3833C41.8332 15.179 41.5002 15.179 41.2958 15.3833L39.0857 17.5934C38.8643 17.8167 38.5162 17.8507 38.2531 17.6786C36.7299 16.6738 35.0591 15.9812 33.2861 15.6179C32.9777 15.5555 32.7563 15.283 32.7563 14.9689V11.8468C32.7563 11.5573 32.5217 11.3226 32.2322 11.3226H28.5934C28.3039 11.3226 28.0693 11.5573 28.0693 11.8468V14.9689C28.0693 15.283 27.8479 15.5555 27.5395 15.6179C25.7665 15.9812 24.0957 16.6757 22.5725 17.6804C22.3095 17.8526 21.9613 17.8186 21.7399 17.5953L19.5317 15.3871C19.333 15.1884 18.9886 15.1884 18.79 15.3871L16.2166 17.9605C16.1182 18.0589 16.0633 18.1913 16.0633 18.3314C16.0633 18.4714 16.1182 18.6038 16.2166 18.7022L18.4267 20.9123C18.6499 21.1337 18.684 21.4819 18.5118 21.7449C17.507 23.2681 16.8145 24.9389 16.4512 26.7119C16.3888 27.0203 16.1163 27.2417 15.8022 27.2417H12.6819C12.3924 27.2417 12.1578 27.4764 12.1578 27.7659V31.4046C12.1578 31.6941 12.3924 31.9287 12.6819 31.9287H15.8041C16.1182 31.9287 16.3888 32.1501 16.4531 32.4585C16.8164 34.2315 17.5108 35.9023 18.5156 37.4256C18.6897 37.6886 18.6537 38.0367 18.4304 38.2581L16.2222 40.4663C16.1238 40.5647 16.069 40.6972 16.069 40.8372C16.069 40.9772 16.1238 41.1097 16.2222 41.2081L18.7956 43.7815C19 43.9858 19.333 43.9858 19.5374 43.7815L21.7475 41.5714C21.8761 41.4427 22.0445 41.3765 22.2167 41.3765L22.2148 41.3784Z"/>
</mask>
<path d="M32.2416 49.1667H28.6029C27.583 49.1667 26.7542 48.3379 26.7542 47.318V44.7295C25.1856 44.351 23.6945 43.7323 22.3095 42.8865L20.474 44.7219C19.7531 45.4428 18.5799 45.4428 17.859 44.7219L15.2856 42.1485C14.5647 41.4276 14.5647 40.2544 15.2856 39.5335L17.1191 37.6999C16.2714 36.3148 15.6527 34.8238 15.2724 33.257H12.6819C11.662 33.257 10.8333 32.4283 10.8333 31.4084V27.7697C10.8333 26.7498 11.662 25.921 12.6819 25.921H15.2705C15.6489 24.3523 16.2677 22.8613 17.1135 21.4762L15.278 19.6408C14.928 19.2907 14.7369 18.8271 14.7369 18.3333C14.7369 17.8394 14.9299 17.3758 15.278 17.0257L17.8514 14.4523C18.2015 14.1023 18.6651 13.9112 19.1589 13.9112C19.6528 13.9112 20.1164 14.1042 20.4664 14.4523L22.3 16.2859C23.6851 15.4382 25.1761 14.8194 26.7429 14.4391V11.8487C26.7429 10.8288 27.5717 10 28.5916 10H32.2303C33.2502 10 34.0789 10.8288 34.0789 11.8487V14.4372C35.6476 14.8157 37.1386 15.4344 38.5237 16.2802L40.3592 14.4448C41.0801 13.7239 42.2532 13.7239 42.9742 14.4448L45.5476 17.0182C45.8976 17.3663 46.0887 17.8318 46.0887 18.3257C46.0887 18.8195 45.8957 19.2831 45.5476 19.6332L43.714 21.4667C44.5617 22.8518 45.1805 24.341 45.5608 25.9096H48.1512C49.1711 25.9096 49.9999 26.7384 49.9999 27.7583V31.397C49.9999 32.4169 49.1711 33.2457 48.1512 33.2457H45.5627C45.1843 34.8143 44.5655 36.3054 43.7197 37.6905L45.5551 39.5259C45.9052 39.876 46.0963 40.3396 46.0963 40.8334C46.0963 41.3273 45.9033 41.7909 45.5551 42.1409L42.9817 44.7143C42.2608 45.4352 41.0877 45.4352 40.3667 44.7143L38.5332 42.8808C37.1481 43.7285 35.657 44.3472 34.0903 44.7276V47.318C34.0903 48.3379 33.2615 49.1667 32.2416 49.1667ZM22.2148 41.3784C22.3416 41.3784 22.4684 41.4143 22.58 41.4881C24.1033 42.4929 25.7741 43.1854 27.5471 43.5487C27.8555 43.6112 28.0769 43.8836 28.0769 44.1977V47.318C28.0769 47.6075 28.3115 47.8421 28.601 47.8421H32.2397C32.5292 47.8421 32.7639 47.6075 32.7639 47.318V44.1959C32.7639 43.8817 32.9852 43.6093 33.2937 43.5468C35.0667 43.1835 36.7375 42.4891 38.2607 41.4843C38.5237 41.3102 38.8719 41.3462 39.0933 41.5695L41.3015 43.7777C41.5058 43.982 41.8389 43.982 42.0432 43.7777L44.6166 41.2043C44.715 41.1059 44.7699 40.9734 44.7699 40.8334C44.7699 40.6934 44.715 40.5609 44.6166 40.4625L42.4065 38.2525C42.1832 38.0292 42.1492 37.681 42.3214 37.4199C43.3261 35.8967 44.0206 34.224 44.382 32.4529C44.4444 32.1444 44.7169 31.923 45.031 31.923H48.1512C48.4407 31.923 48.6754 31.6884 48.6754 31.3989V27.7602C48.6754 27.4707 48.4407 27.2361 48.1512 27.2361H45.0291C44.715 27.2361 44.4444 27.0147 44.3801 26.7062C44.0168 24.9332 43.3223 23.2624 42.3176 21.7392C42.1435 21.4762 42.1795 21.128 42.4027 20.9066L44.6109 18.6984C44.7093 18.6001 44.7642 18.4676 44.7642 18.3276C44.7642 18.1876 44.7093 18.0551 44.6109 17.9567L42.0375 15.3833C41.8332 15.179 41.5002 15.179 41.2958 15.3833L39.0857 17.5934C38.8643 17.8167 38.5162 17.8507 38.2531 17.6786C36.7299 16.6738 35.0591 15.9812 33.2861 15.6179C32.9777 15.5555 32.7563 15.283 32.7563 14.9689V11.8468C32.7563 11.5573 32.5217 11.3226 32.2322 11.3226H28.5934C28.3039 11.3226 28.0693 11.5573 28.0693 11.8468V14.9689C28.0693 15.283 27.8479 15.5555 27.5395 15.6179C25.7665 15.9812 24.0957 16.6757 22.5725 17.6804C22.3095 17.8526 21.9613 17.8186 21.7399 17.5953L19.5317 15.3871C19.333 15.1884 18.9886 15.1884 18.79 15.3871L16.2166 17.9605C16.1182 18.0589 16.0633 18.1913 16.0633 18.3314C16.0633 18.4714 16.1182 18.6038 16.2166 18.7022L18.4267 20.9123C18.6499 21.1337 18.684 21.4819 18.5118 21.7449C17.507 23.2681 16.8145 24.9389 16.4512 26.7119C16.3888 27.0203 16.1163 27.2417 15.8022 27.2417H12.6819C12.3924 27.2417 12.1578 27.4764 12.1578 27.7659V31.4046C12.1578 31.6941 12.3924 31.9287 12.6819 31.9287H15.8041C16.1182 31.9287 16.3888 32.1501 16.4531 32.4585C16.8164 34.2315 17.5108 35.9023 18.5156 37.4256C18.6897 37.6886 18.6537 38.0367 18.4304 38.2581L16.2222 40.4663C16.1238 40.5647 16.069 40.6972 16.069 40.8372C16.069 40.9772 16.1238 41.1097 16.2222 41.2081L18.7956 43.7815C19 43.9858 19.333 43.9858 19.5374 43.7815L21.7475 41.5714C21.8761 41.4427 22.0445 41.3765 22.2167 41.3765L22.2148 41.3784Z" fill="black" stroke="white" stroke-width="2" mask="url(#path-2-inside-1_1_1111)"/>
</svg>
